HIERARCHY
ROOT Hips
{
	OFFSET -3.958830 18.904000 13.208200
	CHANNELS 6 Xposition Yposition Zposition Zrotation Yrotation Xrotation 
	JOINT LHipJoint
	{
		OFFSET 0.000000 0.000000 0.000000
		CHANNELS 3 Zrotation Yrotation Xrotation
		JOINT LeftUpLeg
		{
			OFFSET 1.800000 -1.400000 0.085000
			CHANNELS 3 Zrotation Yrotation Xrotation
			JOINT LeftLeg
			{
				OFFSET 2.215000 -6.000000 0.000000
				CHANNELS 3 Zrotation Yrotation Xrotation
				JOINT LeftFoot
				{
					OFFSET 2.500000 -6.900000 0.000000
					CHANNELS 3 Zrotation Yrotation Xrotation
					JOINT LeftToeBase
					{
						OFFSET 0.200000 -0.500000 1.950000
						CHANNELS 3 Zrotation Yrotation Xrotation
						End Site
						{
							OFFSET 0.000000 0.000000 0.000000
						}
					}
				}
			}
		}
	}
	JOINT RHipJoint
	{
		OFFSET 0.000000 0.000000 0.000000
		CHANNELS 3 Zrotation Yrotation Xrotation
		JOINT RightUpLeg
		{
			OFFSET -1.800000 -1.400000 0.085000
			CHANNELS 3 Zrotation Yrotation Xrotation
			JOINT RightLeg
			{
				OFFSET -2.215000 -6.000000 0.000000
				CHANNELS 3 Zrotation Yrotation Xrotation
				JOINT RightFoot
				{
					OFFSET -2.500000 -6.900000 0.000000
					CHANNELS 3 Zrotation Yrotation Xrotation
					JOINT RightToeBase
					{
						OFFSET -0.200000 -0.500000 1.950000
						CHANNELS 3 Zrotation Yrotation Xrotation
						End Site
						{
							OFFSET 0.000000 0.000000 0.000000
						}
					}
				}
			}
		}
	}
	JOINT LowerBack
	{
		OFFSET 0.000000 0.000000 0.000000
		CHANNELS 3 Zrotation Yrotation Xrotation
		JOINT Spine
		{
			OFFSET -0.087000 1.940000 -0.288900
			CHANNELS 3 Zrotation Yrotation Xrotation
			JOINT Spine1
			{
				OFFSET 0.000000 1.950000 0.060000
				CHANNELS 3 Zrotation Yrotation Xrotation
				JOINT Neck
				{
					OFFSET 0.000000 0.000000 0.000000
					CHANNELS 3 Zrotation Yrotation Xrotation
					JOINT Neck1
					{
						OFFSET 0.000000 1.600000 0.340000
						CHANNELS 3 Zrotation Yrotation Xrotation
						JOINT Head
						{
							OFFSET 0.000000 1.667000 -0.240000
							CHANNELS 3 Zrotation Yrotation Xrotation
							End Site
							{
								OFFSET 0.000000 0.000000 0.000000
							}
						}
					}
				}
				JOINT LeftShoulder
				{
					OFFSET 0.000000 0.000000 0.000000
					CHANNELS 3 Zrotation Yrotation Xrotation
					JOINT LeftArm
					{
						OFFSET 2.700000 1.550000 -0.730000
						CHANNELS 3 Zrotation Yrotation Xrotation
						JOINT LeftForeArm
						{
							OFFSET 5.450000 0.000000 0.000000
							CHANNELS 3 Zrotation Yrotation Xrotation
							JOINT LeftHand
							{
								OFFSET 3.450000 0.000000 0.000000
								CHANNELS 3 Zrotation Yrotation Xrotation
								JOINT LeftHandIndex1
								{
									OFFSET 0.750000 0.000000 0.000000
									CHANNELS 3 Zrotation Yrotation Xrotation
									End Site
									{
										OFFSET 0.000000 0.000000 0.000000
									}
								}
							}
						}
					}
				}
				JOINT RightShoulder
				{
					OFFSET 0.000000 0.000000 0.000000
					CHANNELS 3 Zrotation Yrotation Xrotation
					JOINT RightArm
					{
						OFFSET -2.700000 1.550000 -0.730000
						CHANNELS 3 Zrotation Yrotation Xrotation
						JOINT RightForeArm
						{
							OFFSET -5.450000 0.000000 0.000000
							CHANNELS 3 Zrotation Yrotation Xrotation
							JOINT RightHand
							{
								OFFSET -3.450000 0.000000 0.000000
								CHANNELS 3 Zrotation Yrotation Xrotation
								JOINT RightHandIndex1
								{
									OFFSET -0.750000 0.000000 0.000000
									CHANNELS 3 Zrotation Yrotation Xrotation
									End Site
									{
										OFFSET 0.000000 0.000000 0.000000
									}
								}
							}
						}
					}
				}
			}
		}
	}
}
MOTION
Frames: 8
Frame Time: 0.016667
0.409140 16.756570 -0.845310 -20.257488 -24.524882 9.720377 -14.964418 11.731332 2.484898 14.960610 -0.739786 -11.314540 -9.079288 4.537806 0.033995 -0.555009 4.248573 3.120765 0.392510 0.191590 0.345730 18.928091 -8.602053 5.181737 41.886202 8.929768 -19.465088 -17.257175 -2.991452 -12.446699 -0.400651 -2.488291 3.446283 0.192580 0.111690 0.161550 -5.024885 -1.875032 -8.416527 38.264010 -9.806350 17.607850 -9.681082 0.956129 7.607336 1.873099 -7.747938 -12.616573 -19.057101 5.416621 32.963702 -6.085390 3.644660 -15.630850 -33.290948 -25.307663 0.060073 -9.913136 -22.688330 -8.575304 38.988314 -49.902355 -16.967084 -3.631121 2.542634 0.585860 0.019040 0.116290 0.128070 28.834019 24.711799 16.122916 39.799595 -12.750277 -10.618436 4.220749 31.046375 -0.410066 1.862709 -1.417030 -0.243990 0.297480 0.011460 -0.214970 
0.414150 16.754410 -0.866700 -20.664836 -25.220145 9.967424 -14.981525 11.596790 2.421875 15.539308 -0.820145 -11.457571 -9.512475 4.719057 0.626094 -0.548730 4.320178 3.090351 0.391820 0.191560 0.346080 18.945789 -8.345605 5.491886 42.602671 11.463145 -22.868226 -18.286667 -1.869843 -6.493376 -0.275947 -2.087810 3.578049 0.197040 0.120870 0.166020 -5.071467 -1.793699 -8.527959 38.211842 -9.630772 18.183084 -9.609650 1.533546 7.366877 2.002981 -7.676254 -12.283707 -18.589932 5.113814 32.585125 -6.214340 3.654500 -15.109590 -33.800781 -25.089700 -0.263667 -10.853733 -23.073938 -8.536167 37.265065 -50.054752 -16.285107 -3.634374 2.562745 0.567070 0.033170 0.104830 0.128830 28.980875 24.585378 16.005819 39.969545 -13.172799 -11.403213 6.680501 33.077174 -0.085602 1.842045 -1.459426 -0.242620 0.290260 0.009790 -0.212360 
0.421290 16.744120 -0.893040 -20.697772 -26.854663 10.504700 -15.021769 11.327246 2.260769 15.690849 -0.955315 -11.820167 -10.113836 4.936768 1.536844 -0.567394 4.378456 3.070658 0.379340 0.176310 0.329160 18.988733 -7.842334 6.122167 42.906544 15.808358 -28.893124 -18.765891 0.009060 3.371109 -0.115622 -1.636318 3.733033 0.202840 0.158570 0.169640 -5.179348 -1.657743 -8.725021 37.669915 -9.020337 18.990211 -9.623237 2.648370 6.871225 1.955237 -7.821151 -11.725314 -18.277653 4.730978 31.567010 -6.126690 3.442220 -14.361780 -33.686978 -24.152969 -0.881716 -12.632927 -23.915035 -8.146317 35.591278 -50.794378 -15.848267 -3.645804 2.553663 0.540750 0.065580 0.070900 0.128980 28.814889 24.039845 15.605103 40.639132 -13.204994 -12.158529 8.986741 34.922517 0.266836 1.817895 -1.488388 -0.253930 0.298380 0.026450 -0.208240 
0.420420 16.716920 -0.914750 -19.286430 -28.604022 10.447231 -15.105310 10.978449 1.996489 14.639876 -1.198208 -12.119957 -10.887204 5.150558 2.716393 -0.572728 4.359622 3.090861 0.364310 0.175750 0.293260 19.046470 -7.049308 7.101821 41.024927 21.865684 -37.920606 -17.388507 2.021664 17.281764 -0.072605 -1.760116 3.675917 0.217200 0.210210 0.174040 -5.293767 -1.679050 -9.022430 35.231111 -7.838040 19.884716 -9.058676 3.637606 6.092385 1.591342 -7.790634 -10.875159 -17.402678 4.357979 30.240040 -5.753930 3.392740 -13.109670 -33.289873 -22.663852 -1.595642 -15.089658 -25.025395 -7.483294 34.038512 -51.518112 -15.436487 -3.663522 2.561649 0.487070 0.109450 0.031480 0.143780 28.956011 22.877897 14.855660 41.334693 -12.839237 -12.587504 10.877069 36.040610 0.561508 1.814591 -1.533166 -0.258430 0.302100 0.033880 -0.185820 
0.415110 16.682360 -0.909130 -16.443248 -28.535375 8.739090 -15.174314 10.878352 1.823220 12.475134 -1.478378 -12.309061 -11.549858 5.420706 4.464526 -0.592820 4.316175 3.126728 0.348320 0.165880 0.264230 19.060162 -6.560003 7.734346 35.945021 26.234178 -46.871150 -12.307350 1.878689 29.346751 -0.172557 -2.554992 3.382904 0.227710 0.259420 0.175220 -5.291748 -1.907507 -9.162564 31.703604 -6.983341 20.390051 -8.231182 3.503957 5.351706 1.141749 -7.506038 -9.878093 -16.375974 4.012353 29.462947 -5.435680 3.332110 -12.024710 -32.888112 -20.990284 -2.108711 -18.136925 -26.180718 -6.652819 32.420079 -52.104377 -15.015726 -3.689781 2.567286 0.448640 0.149680 -0.006630 0.155350 29.281679 21.128935 13.748545 42.053403 -11.919681 -12.564987 11.750226 35.920230 0.684536 1.821532 -1.550015 -0.271850 0.311610 0.043640 -0.172440 
0.405200 16.631280 -0.868530 -14.110764 -26.860201 7.615720 -15.215821 10.855298 1.695719 10.307168 -1.769558 -12.396244 -11.487336 5.556733 5.917968 -0.612531 4.252111 3.176304 0.324290 0.148410 0.224140 19.072435 -6.317089 8.032419 31.366213 29.073847 -55.145250 -7.819860 0.532557 36.755691 -0.274734 -3.440625 3.065635 0.238910 0.327090 0.184350 -5.261346 -2.120090 -9.138238 29.422532 -6.563762 19.127036 -7.719527 2.637768 4.433080 0.792076 -7.179946 -8.427068 -15.169075 3.545273 28.138701 -5.405370 3.213480 -10.167710 -32.024146 -17.836851 -2.816712 -22.670397 -27.896997 -4.744850 29.907503 -52.768462 -14.080931 -3.744054 2.600426 0.379220 0.214890 -0.066820 0.167930 28.928847 17.626634 11.822076 43.139626 -10.629501 -11.985096 12.868343 35.046815 0.935026 1.847172 -1.568964 -0.281430 0.310180 0.057900 -0.153000 
0.399860 16.590680 -0.819020 -12.220310 -24.673623 6.210033 -15.222615 10.997403 1.665537 8.469895 -1.944766 -12.408506 -11.170656 5.755529 7.699800 -0.624136 4.243050 3.202757 0.293370 0.113050 0.185110 19.056813 -6.345752 8.000253 28.439783 29.471283 -60.245651 -5.484825 -0.516162 39.158429 -0.289920 -3.808024 2.940919 0.233390 0.383850 0.184510 -5.178821 -2.342756 -9.016539 27.761275 -6.712637 18.160670 -7.470955 1.477249 3.434263 0.548885 -6.964775 -7.238773 -14.613448 3.329941 27.580441 -5.160430 2.988110 -8.697520 -31.772786 -14.971377 -3.418781 -26.598459 -29.071751 -3.033132 27.759406 -53.454190 -13.245350 -3.785615 2.622530 0.337570 0.258770 -0.117050 0.176330 29.047574 14.350394 10.112141 43.992203 -9.557159 -11.438789 12.878915 34.063667 1.005508 1.869073 -1.565569 -0.297480 0.316170 0.076630 -0.140110 
0.398860 16.557000 -0.766860 -10.600492 -22.020918 4.414949 -15.211920 11.249833 1.684311 6.759889 -2.054380 -12.200427 -10.450307 5.954463 9.847041 -0.631148 4.263433 3.205106 0.265260 0.072210 0.167090 19.022908 -6.516146 7.797761 25.819723 28.378271 -63.524763 -4.557280 -1.288182 41.146209 -0.325880 -4.179633 2.804354 0.215460 0.408250 0.187330 -5.051068 -2.608859 -8.863503 26.275293 -7.226250 17.717916 -7.358424 0.113136 2.424971 0.486430 -6.699970 -6.192594 -14.279150 3.203749 27.762730 -5.099640 2.927000 -7.915050 -31.888627 -12.411087 -3.982794 -29.958741 -30.020212 -1.525226 25.643124 -53.836313 -12.291806 -3.811804 2.639549 0.327300 0.276110 -0.140660 0.170290 29.222841 11.268666 8.527584 44.919739 -8.473454 -11.007153 12.361988 33.149383 1.008519 1.898075 -1.538357 -0.309380 0.313450 0.094700 -0.140230 
